<svg width="13" height="16" viewBox="0 0 13 16" fill="none" xmlns="http://www.w3.org/2000/svg">
<path d="M0 0V16H13V4L8.66667 0H0Z" fill="#202F5A"/>
<path d="M6.32791 3H7.25L4.90698 13H4L6.32791 3Z" fill="#EB555A"/>
<path d="M8.4949 3H9.41699L7.07397 13H6.16699L8.4949 3Z" fill="#EB555A"/>
<path d="M8.66699 4V0L13.0003 4H8.66699Z" fill="#202F5A"/>
<path d="M0 0V16H13V4L8.66667 0H0ZM1.08333 1H7.58333V5H11.9167V15H1.08333V1ZM8.66667 1.4L11.4833 4H8.66667V1.4Z" fill="#999999"/>
<path opacity="0.3" d="M11.9163 5V10L7.58301 5H11.9163Z" fill="#212121"/>
</svg>
