<svg width="26" height="27" viewBox="0 0 26 27" fill="none" xmlns="http://www.w3.org/2000/svg">
<g clip-path="url(#clip0_1_139)">
<path fill-rule="evenodd" clip-rule="evenodd" d="M24.4706 9.67648H18.3529V3.55883C18.3529 2.71307 17.6693 2.02942 16.8235 2.02942H10.7059C9.86012 2.02942 9.17648 2.71307 9.17648 3.55883V9.67648H3.05883C2.21307 9.67648 1.52942 10.3601 1.52942 11.2059V17.3235C1.52942 18.1693 2.21307 18.8529 3.05883 18.8529H9.17648V24.9706C9.17648 25.8164 9.86012 26.5 10.7059 26.5H16.8235C17.6693 26.5 18.3529 25.8164 18.3529 24.9706V18.8529H24.4706C25.3164 18.8529 26 18.1693 26 17.3235V11.2059C26 10.3601 25.3164 9.67648 24.4706 9.67648Z" fill="#EB545B"/>
</g>
<defs>
<clipPath id="clip0_1_139">
<rect width="26" height="26" fill="white" transform="translate(0 0.5)"/>
</clipPath>
</defs>
</svg>
