<svg width="60" height="92" viewBox="0 0 60 92" fill="none" xmlns="http://www.w3.org/2000/svg">
<path d="M12.4784 31.735L15.0007 28.4368L17.5007 25.4368L18.9791 23.1243L21.5007 19.9368L22.8566 17.4363L25.001 14.9363L27.501 10.9363L30.001 7.93628L33.173 3.66367L30.501 8.93628L29.501 11.9363L28.501 13.9363L27.001 17.4363L25.501 21.4363L23.3985 26.2055L25.501 28.4368L27.501 30.4363L29.3466 32.806L31.1923 35.1757L28.501 37.9363L26.501 40.4363L24.001 42.9363L20.501 45.9363L16.001 50.9363L10.001 56.4363L1.00049 66.6042L6.00098 58.4363L9.00098 52.4363L12.001 47.9363L14.001 44.9363L16.501 40.9363L18.9791 36.4633L15.501 33.4363L12.4784 31.735Z" fill="#EB545B" stroke="#EB545B" stroke-width="2" stroke-linecap="round" stroke-linejoin="round"/>
<path d="M36.4251 64.6313L38.9913 63.5908L41.4436 62.7142L43.0762 61.8865L45.6045 60.9094L47.2304 59.9322L49.3091 59.2223L52.1001 57.7712L54.5525 56.8945L57.8219 55.5144L54.501 57.6384L52.9104 59.0231L51.6584 59.8333L49.6112 61.3359L47.3946 63.1258L44.5714 65.1535L45.0235 67.1474L45.4952 68.9735L45.7528 70.96L46.0104 72.9465L43.5293 73.6209L41.5336 74.3796L39.2506 74.969L36.2237 75.507L31.945 76.8552L26.6352 77.9825L18.0206 80.7752L23.6598 77.7766L27.4156 75.3459L30.6632 73.7769L32.8283 72.7309L35.6194 71.2797L38.5581 69.5495L37.5853 66.6324L36.4251 64.6313Z" fill="#EB545B" stroke="#EB545B" stroke-width="2" stroke-linecap="round" stroke-linejoin="round"/>
</svg>
